<?xml version="1.0" encoding="utf-8"?>
<!-- Generator: Adobe Illustrator 27.4.0, SVG Export Plug-In . SVG Version: 6.00 Build 0)  -->
<svg version="1.1" id="_x32_" xmlns="http://www.w3.org/2000/svg" xmlns:xlink="http://www.w3.org/1999/xlink" x="0px" y="0px"
	 viewBox="0 0 512 512" style="enable-background:new 0 0 512 512;" xml:space="preserve">
<style type="text/css">
	.st0{fill:#DCDCDC;}
</style>
<g>
	<path class="st0" d="M285.9,232.3c-0.5-1.2-0.4-3.2-0.1-4.7c1.8-10.4,5-18.1,8.8-23.9c-7.3-8.2-15.2-9.4-15.6-9.5l-1.5-0.2
		c-2.6,6.8-6.7,16-9.7,24.4c-0.9,2.5-2.1,5-3.5,6s-4.7,1.6-7.5,2.4c-13,3.8-22.6,15.8-22.6,30.1c0,17.3,14,31.4,31.4,31.4
		c17.3,0,31.4-14,31.4-31.4c0-8.6-3.4-16.3-9-22C286.9,234.1,286.4,233.5,285.9,232.3z M265.5,274c-9.4,0-17-7.6-17-17
		c0-9.4,7.6-17,17-17c9.4,0,17,7.6,17,17C282.5,266.4,274.9,274,265.5,274z"/>
	<path class="st0" d="M358.4,275.9c4-5.3,6.3-11.8,6.3-18.9c0-14.3-9.5-26.3-22.6-30.1c-2.8-0.8-6.1-1.4-7.5-2.4
		c-1.4-1-2.6-3.5-3.5-6c-4.3-12.1-10.9-25.9-12.2-31.8c0,0-8.5-112.7-10.2-127.2c-1.7-14.4-4.2-19.5-9.3-19.5
		c-5.1,0-7.6,5.1-9.3,19.5c-1.7,14.4-10.2,127.2-10.2,127.2s26.7,3,33.1,41c0.3,1.5,0.4,3.5-0.1,4.7c-0.5,1.2-1,1.7-2,2.7
		c-5.6,5.7-9,13.4-9,22c0,17.3,14,31.4,31.4,31.4c5.9,0,11.5-1.6,16.2-4.5c10.7,9.7,19.7,12.1,19.7,12.1l5.1-9.3
		C366.6,284.4,359.6,277.1,358.4,275.9z M299.4,181.6c-3.3,0-5.9-2.7-5.9-5.9c0-3.3,2.7-5.9,5.9-5.9c3.3,0,5.9,2.7,5.9,5.9
		C305.4,178.9,302.7,181.6,299.4,181.6z M333.3,274c-9.4,0-17-7.6-17-17c0-9.4,7.6-17,16.9-17c9.4,0,17,7.6,17,17
		C350.3,266.4,342.7,274,333.3,274z"/>
	<path class="st0" d="M201.5,42.3h-57.1c-3.7,0-6.7,3-6.7,6.7v13.4c0,3.1,2.5,5.6,5.6,5.6h41c5.3,0,9.6,4.3,9.6,9.7
		c0,5.3-4.3,9.6-9.6,9.6h-41c-3.1,0-5.6,2.5-5.6,5.6v5.9c0,3.1,2.5,5.6,5.6,5.6h41c5.3,0,9.6,4.3,9.6,9.6s-4.3,9.6-9.6,9.6h-41
		c-3.1,0-5.6,2.5-5.6,5.6v5.9c0,3.1,2.5,5.6,5.6,5.6h41c5.3,0,9.6,4.3,9.6,9.6c0,5.3-4.3,9.6-9.6,9.6h-41c-3.1,0-5.6,2.5-5.6,5.6
		v5.9c0,3.1,2.5,5.6,5.6,5.6h41c5.3,0,9.6,4.3,9.6,9.6c0,5.3-4.3,9.6-9.6,9.6h-41c-3.1,0-5.6,2.5-5.6,5.6v5.9c0,3.1,2.5,5.6,5.6,5.6
		h41c5.3,0,9.6,4.3,9.6,9.6c0,5.3-4.3,9.6-9.6,9.6h-41c-3.1,0-5.6,2.5-5.6,5.6v5.9c0,3.1,2.5,5.6,5.6,5.6h41c5.3,0,9.6,4.3,9.6,9.6
		c0,5.3-4.3,9.6-9.6,9.6h-41c-3.1,0-5.6,2.5-5.6,5.6V287c0,3.7,3,6.7,6.7,6.7h57.1c9.6,0,17.4-7.8,17.4-17.5V59.7
		C219,50.1,211.2,42.3,201.5,42.3z"/>
</g>
</svg>
