<?xml version="1.0" encoding="utf-8"?>
<!-- Generator: Adobe Illustrator 27.4.0, SVG Export Plug-In . SVG Version: 6.00 Build 0)  -->
<svg version="1.1" id="_x32_" xmlns="http://www.w3.org/2000/svg" xmlns:xlink="http://www.w3.org/1999/xlink" x="0px" y="0px"
	 viewBox="0 0 512 512" style="enable-background:new 0 0 512 512;" xml:space="preserve">
<style type="text/css">
	.st0{fill:#DCDCDC;}
</style>
<g>
	<polygon class="st0" points="383.8,106.6 383.8,120.6 219.8,241.3 128.2,194 128.2,181.4 219.8,228.2 	"/>
	<polygon class="st0" points="383.9,138.9 384,152.8 220,273.6 128.4,226.3 128.4,213.7 219.9,260.5 	"/>
	<path class="st0" d="M293.5,89.8c0.6-0.4,1.3-0.8,2.1-1.1c0.8-0.3,1.6-0.4,2.4-0.5c0.8-0.1,1.6-0.1,2.4,0c0.8,0.1,1.5,0.3,2.1,0.7
		s1.1,0.7,1.5,1.2c0.3,0.4,0.5,0.9,0.5,1.4s-0.1,1-0.4,1.5c-0.3,0.5-0.7,1-1.4,1.4c-0.6,0.4-1.3,0.8-2.1,1.1
		c-0.8,0.3-1.6,0.4-2.4,0.5c-0.8,0.1-1.6,0.1-2.4,0c-0.8-0.1-1.5-0.3-2.2-0.7c-0.6-0.3-1.1-0.7-1.5-1.2s-0.5-0.9-0.5-1.4
		c0-0.5,0.1-1,0.4-1.5S292.9,90.2,293.5,89.8z"/>
	<path class="st0" d="M209.4,151.2c0.6-0.4,1.3-0.8,2.1-1.1c0.8-0.3,1.6-0.4,2.4-0.5s1.6-0.1,2.4,0c0.8,0.1,1.5,0.3,2.1,0.6
		c0.6,0.3,1.1,0.7,1.5,1.2s0.5,0.9,0.5,1.4c0,0.5-0.1,1-0.4,1.5c-0.3,0.5-0.8,1-1.4,1.4c-0.6,0.4-1.3,0.8-2.1,1.1
		c-0.8,0.3-1.6,0.4-2.4,0.5c-0.8,0.1-1.6,0.1-2.4-0.1c-0.8-0.1-1.5-0.3-2.2-0.7c-0.6-0.3-1.1-0.7-1.4-1.2c-0.3-0.4-0.5-0.9-0.5-1.4
		c0-0.5,0.1-1,0.4-1.5C208.3,152.2,208.8,151.7,209.4,151.2z"/>
	<path class="st0" d="M128,159.9L292.6,40L384,85.7L219.4,206.4L128,159.9z M347.4,80l-38.9-19.5c-2.2,1.2-4.5,2.1-7,2.8
		c-2.5,0.7-5.1,1.2-7.7,1.4c-2.6,0.2-5.2,0.2-7.6-0.1c-2.5-0.3-4.8-0.9-7-1.7L236.7,94c4.1-0.9,8.4-1.5,12.8-1.7
		c4.4-0.2,8.8-0.1,13.2,0.4c4.4,0.5,8.8,1.3,13,2.5c4.2,1.2,8.2,2.7,12,4.6c3.8,1.9,7,4,9.7,6.3c2.7,2.3,4.8,4.8,6.4,7.3
		s2.6,5.2,3.1,7.8c0.5,2.7,0.4,5.3-0.3,8L349.2,98c-1.8-1.1-3.2-2.4-4.1-3.9c-1-1.4-1.5-3-1.7-4.5c-0.1-1.6,0.1-3.2,0.8-4.8
		C344.8,83.1,345.9,81.5,347.4,80 M232.9,183.1l42.9-31.4c-4.1,0.9-8.5,1.5-12.9,1.7c-4.4,0.2-8.9,0.1-13.3-0.4
		c-4.4-0.5-8.8-1.3-13-2.5s-8.3-2.7-12-4.6c-3.8-1.9-7-4-9.7-6.3c-2.7-2.3-4.8-4.8-6.4-7.3c-1.6-2.5-2.6-5.2-3-7.9
		c-0.4-2.7-0.3-5.3,0.4-8L163,147.6c1.8,1.1,3.1,2.4,4.1,3.9c1,1.4,1.5,3,1.6,4.6c0.1,1.6-0.2,3.2-0.9,4.9c-0.7,1.6-1.8,3.2-3.3,4.7
		l38.8,19.7c2.2-1.2,4.6-2.2,7.1-2.9c2.5-0.7,5.1-1.2,7.7-1.4c2.6-0.2,5.2-0.2,7.7,0.2C228.3,181.6,230.7,182.2,232.9,183.1
		 M280,130l-9.7-4.9l12.5-9.1l-1-0.5l-6.1-3.1l-12.5,9.1l-4.7-2.4l-0.8-1.9L269,109l-1.4-0.7l-4.3-2.2l-1.4-0.7l-6.9,5l-3.6-8.9
		l-0.9,0.6l-5.7,4.1L244,107l4.8,12l-20.4-0.7l-0.9,0.6l-5.7,4.2l-0.9,0.6l15,0.5l-6.9,5l1.4,0.7l4.3,2.2l1.4,0.7l11.3-8.2l3.2,0.1
		l4.7,2.4l-12.5,9.1l6.2,3.1l0.9,0.5l12.5-9.1l9.7,4.9L280,130"/>
</g>
</svg>
