<?xml version="1.0" encoding="utf-8"?>
<!-- Generator: Adobe Illustrator 27.4.0, SVG Export Plug-In . SVG Version: 6.00 Build 0)  -->
<svg version="1.1" id="_x32_" xmlns="http://www.w3.org/2000/svg" xmlns:xlink="http://www.w3.org/1999/xlink" x="0px" y="0px"
	 viewBox="0 0 512 512" style="enable-background:new 0 0 512 512;" xml:space="preserve">
<style type="text/css">
	.st0{fill:#DCDCDC;}
</style>
<g>
	<path class="st0" d="M246.4,119.3H186c-11.3,0-20.5,9.2-20.5,20.5v123.3c0,18.1,14.7,32.8,32.8,32.8h35.7
		c18.1,0,32.8-14.7,32.8-32.8V139.8C266.9,128.5,257.7,119.3,246.4,119.3z M216.2,285.4c-2.8,0-5.1-2.3-5.1-5.1
		c0-2.8,2.3-5.1,5.1-5.1c2.8,0,5.1,2.3,5.1,5.1C221.3,283.1,219,285.4,216.2,285.4z M203.2,127h26.1c1.5,0,2.7,1.2,2.7,2.7
		c0,1.5-1.2,2.7-2.7,2.7h-26.1c-1.5,0-2.7-1.2-2.7-2.7C200.5,128.2,201.7,127,203.2,127z M177.1,263.2V143.9h78.2v119.2
		c0,1.3-0.1,2.6-0.4,3.9h-77.5C177.2,265.8,177.1,264.5,177.1,263.2z"/>
	<path class="st0" d="M266.2,92.8l-3.6,8.5c10.4,4.4,18.6,12.9,22.7,23.4l8.6-3.4C288.9,108.5,278.9,98.1,266.2,92.8z"/>
	<path class="st0" d="M268.7,66.2L266,75c21.9,6.7,39.2,24.2,45.4,46.3l8.9-2.5C313.2,93.7,293.7,73.8,268.7,66.2z"/>
	<path class="st0" d="M271.4,40l-2.3,9c33.7,8.5,60.3,35.3,68.3,69.3l9-2.1C337.6,78.8,308.5,49.3,271.4,40z"/>
</g>
</svg>
