<?xml version="1.0" encoding="utf-8"?>
<!-- Generator: Adobe Illustrator 27.4.0, SVG Export Plug-In . SVG Version: 6.00 Build 0)  -->
<svg version="1.1" id="_x32_" xmlns="http://www.w3.org/2000/svg" xmlns:xlink="http://www.w3.org/1999/xlink" x="0px" y="0px"
	 viewBox="0 0 512 512" style="enable-background:new 0 0 512 512;" xml:space="preserve">
<style type="text/css">
	.st0{fill:#DCDCDC;}
</style>
<g>
	<path class="st0" d="M369.6,87.3h-66.3l-30,29.5c-4.1,4-9.4,6.2-15.1,6.2c-5.8,0-11.3-2.3-15.4-6.5c-7.9-8.1-8.2-20.8-1-29.2h-99.3
		c-8,0-14.4,6.5-14.4,14.4v4.8c0,7.8,6.3,14.2,14.1,14.4l15.5,95.2c1.9,11.5,11.8,20,23.5,20h149.6c11.7,0,21.6-8.5,23.5-20
		l15.6-95.2c7.8-0.2,14.1-6.5,14.1-14.4v-4.8C384,93.7,377.5,87.3,369.6,87.3z M204.8,210.1c-1.3,1.4-3.1,2.2-5,2.2H196
		c-3.4,0-6.2-2.5-6.7-5.8l-8.3-58.5c-0.3-1.9,0.3-3.9,1.6-5.4c1.3-1.5,3.1-2.3,5.1-2.3h5.9c3.5,0,6.3,2.6,6.7,6l6.1,58.5
		C206.7,206.8,206.1,208.7,204.8,210.1z M243.4,210.3c-1.3,1.3-3,2-4.8,2h-3.9c-3.6,0-6.5-2.8-6.7-6.3l-3.5-58.5
		c-0.1-1.9,0.6-3.7,1.8-5c1.3-1.4,3-2.1,4.9-2.1h6c3.7,0,6.7,2.9,6.7,6.6l1.3,58.5C245.3,207.3,244.6,209,243.4,210.3z M284,206
		c-0.2,3.6-3.2,6.3-6.7,6.3h-3.9c-1.8,0-3.6-0.7-4.8-2c-1.3-1.3-2-3-1.9-4.9l1.3-58.5c0.1-3.7,3.1-6.6,6.7-6.6h6
		c1.9,0,3.6,0.8,4.9,2.1c1.3,1.3,1.9,3.2,1.8,5L284,206z M330.9,148l-8.3,58.5c-0.5,3.3-3.3,5.8-6.7,5.8h-3.8c-1.9,0-3.7-0.8-5-2.2
		c-1.3-1.4-1.9-3.3-1.7-5.2l6.1-58.5c0.4-3.4,3.3-6,6.7-6h5.9c2,0,3.8,0.8,5.1,2.3C330.6,144.1,331.2,146.1,330.9,148z"/>
	<path class="st0" d="M266.8,110.3l59.9-58.9c4.9-4.8,5-12.7,0.2-17.6c-4.8-4.9-12.7-5-17.6-0.2l-59.9,58.9
		c-4.9,4.8-5,12.7-0.2,17.6C254,115,261.9,115.1,266.8,110.3z"/>
</g>
</svg>
