<?xml version="1.0" encoding="utf-8"?>
<!-- Generator: Adobe Illustrator 27.4.0, SVG Export Plug-In . SVG Version: 6.00 Build 0)  -->
<svg version="1.1" id="_x32_" xmlns="http://www.w3.org/2000/svg" xmlns:xlink="http://www.w3.org/1999/xlink" x="0px" y="0px"
	 viewBox="0 0 512 512" style="enable-background:new 0 0 512 512;" xml:space="preserve">
<style type="text/css">
	.st0{fill:#DCDCDC;}
</style>
<g>
	<path class="st0" d="M168.9,124.9V90.8l33.9,21.9v28c0,0,0.2-0.1,0.5-0.2c0.5,14.5,6.6,27.6,16.2,37.2c10,10,23.9,16.3,39.2,16.3
		c15.3,0,29.2-6.2,39.2-16.3c9.6-9.6,15.7-22.7,16.2-37.2c0.3,0.1,0.5,0.2,0.5,0.2v-28l43.2-28L258.7,40l-99.1,44.8v40.2
		c-3.1,0.7-5.5,3.5-5.5,6.9v2h20.3v-2C174.4,128.5,172.1,125.7,168.9,124.9z M213.4,137.2c11.1-2.7,29.2-4.2,45.3,7
		c16.1-11.2,34.2-9.7,45.3-7c0,0.4,0,0.8,0,1.2c0,12.5-5.1,23.8-13.3,32.1c-8.2,8.2-19.5,13.3-32.1,13.3c-12.5,0-23.8-5.1-32-13.3
		c-8.2-8.2-13.3-19.5-13.3-32.1C213.4,138,213.4,137.6,213.4,137.2z"/>
	<path class="st0" d="M154.1,149.8c0,3.9,3.2,7.1,7.1,7.1h6c3.9,0,7.1-3.2,7.1-7.1v-11.7h-20.3V149.8z"/>
	<path class="st0" d="M291.5,197c0,0-1.6,1.3-4.5,2.9l-28.3,47.9l-28.3-47.9c-2.9-1.7-4.5-2.9-4.5-2.9
		c-25.6,11.3-36.1,38.4-36.1,59.9c0,21.5,0,39.1,0,39.1h137.8c0,0,0-17.7,0-39.1C327.6,235.4,317.1,208.3,291.5,197z"/>
</g>
</svg>
