<?xml version="1.0" encoding="utf-8"?>
<!-- Generator: Adobe Illustrator 27.4.0, SVG Export Plug-In . SVG Version: 6.00 Build 0)  -->
<svg version="1.1" id="_x32_" xmlns="http://www.w3.org/2000/svg" xmlns:xlink="http://www.w3.org/1999/xlink" x="0px" y="0px"
	 viewBox="0 0 512 512" style="enable-background:new 0 0 512 512;" xml:space="preserve">
<style type="text/css">
	.st0{fill:#DCDCDC;}
</style>
<g>
	<path class="st0" d="M201.8,151.1c0-0.4-0.2-0.8-0.2-1.2v-3.4c0-1.6,0.3-3.2,0.8-4.8c0,0,8.5-11.4,12.5-24.8
		c-4.4-9.3-8.4-20.9-8.4-32.3c0-2.7,0.2-5.2,0.5-7.8c-5.7-6-13.5-9.4-22.1-9.4c-17.7,0-32.1,14.4-32.1,36.9
		c0,18,14.6,37.4,14.6,37.4c0.5,1.5,0.8,3.1,0.8,4.8v3.4c0,4.3-2.5,8.1-6.4,9.9l-23.2,9.5c-5.4,2.5-9.2,7.4-10.3,13.3l-0.4,5.1
		c-0.2,2.7,0.7,5.3,2.5,7.2c1.8,2,4.3,3.1,7,3.1h37.9l1.6-20l0.1-0.5c1.9-10.5,8.8-19.4,18.5-23.8L201.8,151.1z"/>
	<path class="st0" d="M383.6,182.5c-1.1-5.8-4.9-10.8-10.3-13.3l-23.2-9.5c-3.9-1.8-6.3-5.6-6.3-9.9v-3.4c0-1.6,0.3-3.2,0.8-4.8
		c0,0,14.6-19.5,14.6-37.4c0-22.4-14.4-36.9-32.1-36.9c-8.6,0-16.3,3.4-22.1,9.4c0.3,2.5,0.5,5.1,0.5,7.8c0,11.5-4,23-8.4,32.3
		c4,13.4,12.5,24.8,12.5,24.8c0.5,1.5,0.8,3.1,0.8,4.8v3.4c0,0.4-0.1,0.8-0.2,1.2l5.8,2.3c10.1,4.6,17,13.5,18.9,24l0.1,0.5l1.5,20
		h37.9c2.7,0,5.2-1.1,7-3.1c1.8-1.9,2.7-4.6,2.5-7.2L383.6,182.5z"/>
	<path class="st0" d="M311.9,163.3l-28.1-11.5c-4.7-2.2-7.7-6.8-7.7-12v-4.1c0-2,0.3-3.9,1-5.8c0,0,17.7-23.6,17.7-45.3
		c0-27.2-17.4-44.6-38.8-44.6c-21.4,0-38.8,17.5-38.8,44.6c0,21.7,17.7,45.3,17.7,45.3c0.6,1.9,1,3.8,1,5.8v4.1c0,5.1-3,9.8-7.7,12
		l-28.1,11.5c-6.5,3-11.2,9-12.5,16.1l-1.4,18.6H256h69.8l-1.4-18.6C323.1,172.3,318.5,166.3,311.9,163.3z"/>
</g>
</svg>
