<?xml version="1.0" encoding="utf-8"?>
<!-- Generator: Adobe Illustrator 27.4.0, SVG Export Plug-In . SVG Version: 6.00 Build 0)  -->
<svg version="1.1" id="_x32_" xmlns="http://www.w3.org/2000/svg" xmlns:xlink="http://www.w3.org/1999/xlink" x="0px" y="0px"
	 viewBox="0 0 512 512" style="enable-background:new 0 0 512 512;" xml:space="preserve">
<style type="text/css">
	.st0{fill:#DCDCDC;}
</style>
<g>
	<path class="st0" d="M321.9,200c3.6,2.7,8.3,7.5,8.3,7.5c0.4,0.4,1.1,0.6,1.6,0.4c0.6-0.1,1.1-0.6,1.3-1.1c0,0,25.9-66,39.4-100.2
		c-48.7-53.5-139.8,1.2-193.8-38.6c-3.7-2.7-8.5-7.6-8.5-7.6c-0.4-0.4-1.1-0.6-1.6-0.4c-0.6,0.1-1.1,0.6-1.3,1.1
		c0,0-25.9,66-39.4,100.2C176.7,214.9,267.9,160.1,321.9,200z M342.1,100.8c-2.6,9.3,1.4,18.9,8.6,26.1
		c-5.7,14.6-11.4,29.1-17.1,43.7c-8.3-4.3-18,0.3-22.3,8.8c-16.6-6.8-35.6-7.7-55.1-7.1c16.3-8.1,30.6-22.2,37.3-39.1
		c6.6-16.9,3.8-32.2-6.4-39.5C306.5,93.1,325.5,94,342.1,100.8z M248.3,112.2c1.7,4.5,3.5,9.1,5.2,13.6c5.5-4.9,10.9-9.9,16.3-14.8
		c0.4,0,0.8,0,1.2-0.1c2.6-0.1,5.3-0.2,7.9-0.3c0.4,0,0.8,0,1.2,0c-4,3.6-8,7.2-12,10.8c3.2-0.2,6.3-0.3,9.5-0.4
		c-0.2,0.5-0.4,1.1-0.6,1.6c-0.6,1.6-1.3,3.2-1.9,4.8c-0.2,0.5-0.4,1.1-0.6,1.6c-5.2,0.1-10.4,0.4-15.6,0.7
		c-0.9,0.8-1.7,1.5-2.6,2.3c-0.7,1.8-1.4,3.5-2.1,5.3c5.8-0.3,11.5-0.6,17.3-0.8l0,0c-0.9,2.3-1.8,4.6-2.7,6.9
		c-0.1,0.4-0.3,0.7-0.4,1.1c-5.7,0.2-11.5,0.5-17.3,0.8c-1.4,3.6-2.9,7.3-4.3,10.9c-3.6,0.2-7.2,0.4-10.8,0.6
		c1.4-3.6,2.9-7.3,4.3-10.9c-5.8,0.3-11.5,0.6-17.2,0.8c0.1-0.4,0.3-0.7,0.4-1.1c0.9-2.3,1.8-4.6,2.7-6.9v0
		c5.7-0.2,11.5-0.5,17.3-0.8c0.7-1.8,1.4-3.5,2.1-5.3c-0.3-0.7-0.5-1.4-0.8-2.1c-5.2,0.3-10.4,0.6-15.6,0.7c0.2-0.5,0.4-1.1,0.6-1.6
		c0.6-1.6,1.3-3.2,1.9-4.8c0.2-0.5,0.4-1.1,0.6-1.6c3.1-0.1,6.3-0.2,9.5-0.4c-1.3-3.4-2.5-6.7-3.8-10.1c0.4,0,0.8,0,1.2,0
		c2.6-0.1,5.2-0.2,7.9-0.4C247.5,112.2,247.9,112.2,248.3,112.2z M149.9,141.2c5.7-14.6,11.4-29.1,17.2-43.7
		c8.3,4.3,17.9-0.3,22.3-8.8c16.6,6.8,35.6,7.7,55.1,7.1c-16.3,8.1-30.6,22.2-37.3,39.1c-6.6,16.9-3.8,32.2,6.4,39.5
		c-19.5,0.6-38.5-0.3-55.1-7.1C161.1,158,157.1,148.4,149.9,141.2z"/>
	<path class="st0" d="M191.5,138.6c3.1,0.5,6.6-1.5,7.7-4.4s-0.5-5.5-3.6-6c-3.1-0.5-6.5,1.2-7.6,4.1
		C186.8,135.2,188.4,138.1,191.5,138.6z"/>
	<path class="st0" d="M305,139.9c3.1,0.5,6.5-1.3,7.6-4.1c1.1-2.9-0.4-5.8-3.5-6.3c-3.1-0.5-6.6,1.5-7.7,4.4
		C300.3,136.7,301.9,139.3,305,139.9z"/>
	<path class="st0" d="M378,121.8L336,229.5c-1.5-2-3.2-4.3-5.1-6.5l-0.1-0.1l-0.1-0.1c-4.8-5.1-12.2-11.1-22.9-15.7
		c-10.7-4.6-24.8-7.9-43-7.9c-0.6,0-1.2,0-1.8,0l0,0c-10,0-20.5,0.6-30.5,1.2c-10.3,0.6-20.9,1.2-31,1.2c-12.1,0-25.5-0.8-38.5-4.6
		c-8.8-2.5-17.3-6.4-25.3-12.3l-4.2,9c8.5,6,17.7,10,26.8,12.6c14.4,4.1,28.8,4.9,41.2,5c10.6,0,21.3-0.6,31.6-1.3
		c10-0.6,20.3-1.2,29.9-1.2h-0.1h0.1c0.6,0,1.1,0,1.7,0c17,0,29.7,3.1,39.1,7.1c9.4,4,15.6,9.1,19.6,13.3c2.7,3.2,5.1,6.5,6.8,8.9
		c0.9,1.2,1.6,2.3,2,3c0.2,0.4,0.4,0.6,0.5,0.8l0.1,0.2l0,0.1l1.3,2c0.7,1.2,2.1,1.9,3.5,1.7c1.4-0.1,2.6-1,3.1-2.3L384,133.2
		L378,121.8z"/>
</g>
</svg>
