<?xml version="1.0" encoding="utf-8"?>
<!-- Generator: Adobe Illustrator 27.4.0, SVG Export Plug-In . SVG Version: 6.00 Build 0)  -->
<svg version="1.1" id="_x32_" xmlns="http://www.w3.org/2000/svg" xmlns:xlink="http://www.w3.org/1999/xlink" x="0px" y="0px"
	 viewBox="0 0 512 512" style="enable-background:new 0 0 512 512;" xml:space="preserve">
<style type="text/css">
	.st0{fill:#BCBCBC;}
</style>
<g>
	<path class="st0" d="M231.6,31.9v54.6c0,3.5-2.8,6.3-6.3,6.3h-1.7c-3.5,0-6.3-2.8-6.3-6.3V31.7c0-9-6.1-11.7-11.9-11.7
		c-5.8,0-11.9,2.7-11.9,11.7v54.9c0,3.5-2.8,6.3-6.3,6.3h-1.7c-3.5,0-6.3-2.8-6.3-6.3V31.9c0-16.1-23-15.6-23,0.2
		c0,18.9,0,52.1,0,52.1c-0.1,29,6.8,36.5,18.2,45.5c9.2,7.3,17.1,11.4,17.1,29.5v116.1h27.7V159.2c0-18,7.9-22.2,17.1-29.5
		c11.4-9,18.3-16.5,18.2-45.5c0,0,0-33.3,0-52.1C254.5,16.4,231.6,15.8,231.6,31.9z"/>
	<path class="st0" d="M320.6,37.4c-5.9,16.5-22.8,55.1-23.9,89.2c-1.7,52.9,30.8,45.1,31.4,79.8v69.3h27.5l0.1,0.3c0,0,0-0.1,0-0.3
		c0-4.6,0-59.8,0-116.1c0-55.7,0-112.4,0-122.2C355.8,17.3,329.8,11.7,320.6,37.4z"/>
</g>
</svg>
