<?xml version="1.0" encoding="utf-8"?>
<!-- Generator: Adobe Illustrator 27.4.0, SVG Export Plug-In . SVG Version: 6.00 Build 0)  -->
<svg version="1.1" id="_x32_" xmlns="http://www.w3.org/2000/svg" xmlns:xlink="http://www.w3.org/1999/xlink" x="0px" y="0px"
	 viewBox="0 0 512 512" style="enable-background:new 0 0 512 512;" xml:space="preserve">
<style type="text/css">
	.st0{fill:#DCDCDC;}
</style>
<g>
	<path class="st0" d="M344.4,164.2c-2.7,1.6-5.9,2.6-9.3,2.6h-29.7c-10.1,0-18.4-8.2-18.4-18.4c0-2.8,0.7-5.6,1.9-8.1
		c-1.2-2.5-1.9-5.2-1.9-8.1c0-2.8,0.7-5.6,1.9-8.1c-1.2-2.5-1.9-5.2-1.9-8.1c0-2.8,0.7-5.6,1.9-8.1c-1.2-2.5-1.9-5.2-1.9-8.1
		c0-2,0.3-3.9,0.9-5.7h-18.4c-0.9,9.4-4,23.6-14.3,35.9c-11.2,13.4-27.9,21.3-49.7,23.4c-7.1,13.7-12.1,28.4-12.1,43.3
		c0,43.7,35.4,79.1,79.1,79.1c43.7,0,79.1-35.4,79.1-79.1C351.6,185.8,348.8,174.8,344.4,164.2z M297.6,201.9h-18.4l-2,3.1v7.4h20.3
		v0v8.9v1.5h-20.3v15.8h-12.6v-15.8h-20.3v-1.5v-8.9v0h20.3V205l-2-3.1h-18.4V193h12.6l-10.7-16.7h10.7l14.1,21.9l14.1-21.9h10.7
		L285,193h12.6V201.9z"/>
	<path class="st0" d="M295.9,54.4c0,0,2.3-6.2,14.9-14.1c12-7.6,2.8-18.1-14.9-14.2c-12.2,2.7-8.1-6.1-25.2-6.1
		c-17.1,0-13,8.7-25.2,6.1c-17.7-3.9-26.9,6.6-14.9,14.2c12.5,7.9,14.9,14.1,14.9,14.1H295.9z"/>
	<path class="st0" d="M344,132.2c0-3.6-2.1-6.6-5.2-8.1c3-1.4,5.2-4.5,5.2-8.1c0-3.6-2.1-6.6-5.2-8.1c3-1.4,5.2-4.5,5.2-8.1
		c0-4.9-4-8.9-8.9-8.9h-29.7c-4.9,0-8.9,4-8.9,8.9c0,3.6,2.1,6.6,5.2,8.1c-3,1.4-5.2,4.5-5.2,8.1c0,3.6,2.1,6.6,5.2,8.1
		c-3,1.4-5.2,4.5-5.2,8.1c0,3.6,2.1,6.6,5.2,8.1c-3,1.4-5.2,4.5-5.2,8.1c0,4.9,4,8.9,8.9,8.9h29.7c4.9,0,8.9-4,8.9-8.9
		c0-3.6-2.1-6.6-5.2-8.1C341.9,138.9,344,135.8,344,132.2z"/>
	<path class="st0" d="M301.1,64.8c-10,0-56.6,0-56.6,0C220,64.8,213.1,84,194.2,84v60.8l8.3-0.4c63.3-4.9,57.8-59.6,57.8-59.6
		s15.5,0,35.5,0C315.8,84.8,316.9,64.8,301.1,64.8z"/>
	<rect x="160.4" y="76.9" class="st0" width="25.3" height="82.1"/>
</g>
</svg>
