<?xml version="1.0" encoding="utf-8"?>
<!-- Generator: Adobe Illustrator 27.4.0, SVG Export Plug-In . SVG Version: 6.00 Build 0)  -->
<svg version="1.1" id="_x32_" xmlns="http://www.w3.org/2000/svg" xmlns:xlink="http://www.w3.org/1999/xlink" x="0px" y="0px"
	 viewBox="0 0 512 512" style="enable-background:new 0 0 512 512;" xml:space="preserve">
<style type="text/css">
	.st0{fill:#DCDCDC;}
</style>
<g>
	<path class="st0" d="M307.2,51.7c0-6.5-5.2-11.7-11.7-11.7h-79c-6.5,0-11.7,5.2-11.7,11.7v25.1h102.4L307.2,51.7L307.2,51.7z"/>
	<path class="st0" d="M313.6,121.2c-10.4-5.2-13.9-17.3-13.9-27.7c0-0.7,0-1.7,0-2.9c0-0.5,0-0.9,0-1.5h-87.5c0,0.6,0,1,0,1.5
		c0,0.2,0,1,0,2.9c0,10.4-3.5,22.5-13.9,27.7c-12.4,6.2-17.6,15.4-17.6,37.5c0,7.9,0,81.4,0,94c0,21.3,15,43.3,44.9,43.3h60.6
		c29.9,0,44.9-22,44.9-43.3c0-12.6,0-86.1,0-94C331.2,136.7,326,127.4,313.6,121.2z M306.6,243.4H205.4v-82.6h101.2L306.6,243.4
		L306.6,243.4z"/>
	<polygon class="st0" points="247.3,233.5 264.6,233.5 264.6,212.9 285.2,212.9 285.2,195.6 264.6,195.6 264.6,175.1 247.3,175.1 
		247.3,195.6 226.8,195.6 226.8,212.9 247.3,212.9 	"/>
</g>
</svg>
