<?xml version="1.0" encoding="utf-8"?>
<!-- Generator: Adobe Illustrator 27.4.0, SVG Export Plug-In . SVG Version: 6.00 Build 0)  -->
<svg version="1.1" id="_x32_" xmlns="http://www.w3.org/2000/svg" xmlns:xlink="http://www.w3.org/1999/xlink" x="0px" y="0px"
	 viewBox="0 0 512 512" style="enable-background:new 0 0 512 512;" xml:space="preserve">
<style type="text/css">
	.st0{fill:#BCBCBC;}
</style>
<g>
	<path class="st0" d="M240.8,178.3c10.1,0,41.8,0,41.8,0c8.4,0,15.2-6.8,15.2-15.2s-6.8-15.2-15.2-15.2c-7.6,0-22.8,0-60.8,0
		c-38,0-50,15.8-63.4,29.1l-24.1,21.1c-1.6,1.4-2.5,3.3-2.5,5.4v70.1c0,0.9,0.5,1.8,1.4,2.2s1.9,0.3,2.6-0.4l46.7-40
		c1.6-1.4,3.8-2,6-1.6l72.7,13.2c5.1,0.9,10.3-0.2,14.5-3.2c0,0,92.8-64.5,99.6-70.2l0,0c6.5-6,6.5-14.7,0.5-21.2
		c-6-6.5-17.2-5.2-24.6,0.4c-6.8,5.7-53.5,36.4-53.5,36.4h-56.8l-0.2,0.1c-3-0.1-5.3-2.6-5.2-5.6c0.1-3,2.6-5.3,5.6-5.2L240.8,178.3
		z"/>
	<path class="st0" d="M309.3,20c-13.8,0-25.9,7.4-32.6,18.4c21.4,7.8,36.7,28.3,36.7,52.4c0,1.8-0.1,3.5-0.3,5.3
		c19.3-1.9,34.3-18.2,34.3-37.9C347.5,37.1,330.4,20,309.3,20z"/>
	<path class="st0" d="M257.6,47.2c-24.1,0-43.6,19.5-43.6,43.6c0,24.1,19.5,43.6,43.6,43.6s43.6-19.5,43.6-43.6
		C301.2,66.7,281.7,47.2,257.6,47.2z M274.9,87.2H263l-1.3,2V94h13.2v0v5.8v1h-13.2V111h-8.2v-10.2h-13.2v-1V94v0h13.2v-4.8l-1.3-2
		h-11.9v-5.8h8.2l-7-10.9h7l9.1,14.2l9.1-14.2h7l-7,10.9h8.2L274.9,87.2L274.9,87.2z"/>
</g>
</svg>
