<?xml version="1.0" encoding="utf-8"?>
<!-- Generator: Adobe Illustrator 27.4.0, SVG Export Plug-In . SVG Version: 6.00 Build 0)  -->
<svg version="1.1" id="_x32_" xmlns="http://www.w3.org/2000/svg" xmlns:xlink="http://www.w3.org/1999/xlink" x="0px" y="0px"
	 viewBox="0 0 512 512" style="enable-background:new 0 0 512 512;" xml:space="preserve">
<style type="text/css">
	.st0{fill:#DCDCDC;}
</style>
<g>
	<path class="st0" d="M341.7,166.9c-6.8,5.7-41.1,28.3-41.1,28.3h-56.5l-0.2,0.1c-3-0.1-5.3-2.6-5.2-5.6c0.1-3,2.6-5.3,5.6-5.2h41.4
		c8.4,0,15.1-6.9,15.1-15.2c0-8.4-6.8-15.1-15.1-15.1c-7.6,0-22.7,0-60.5,0c-37.8,0-45.7,15.9-52.3,26.8v62.5l70.9,7.3
		c26.7,1.5,39.4,0,58.4-16.1c0,0,56.7-41.4,63.6-47.1c6.5-6,6.4-14.6,0.5-21.1C360.3,160,349.1,161.3,341.7,166.9z"/>
	<rect x="128" y="166.2" class="st0" width="32.9" height="80"/>
	<polygon class="st0" points="284.5,91.5 291.1,91.5 291.1,83.5 301.8,83.5 301.8,82.7 301.8,77.8 301.8,77.7 291.1,77.7 
		291.1,75.4 292.9,72.3 301.8,72.3 301.8,71.1 301.8,67.6 301.8,66.4 295.9,66.4 300.8,56.6 300,56.6 295.2,56.6 294.4,56.6 
		287.8,69.2 281.1,56.6 280.4,56.6 275.5,56.6 274.8,56.6 279.7,66.4 273.8,66.4 273.8,67.6 273.8,71.1 273.8,72.3 282.7,72.3 
		284.5,75.4 284.5,77.7 273.8,77.7 273.8,77.8 273.8,82.7 273.8,83.5 284.5,83.5 	"/>
	<path class="st0" d="M224.8,110.9h125.9c1.8-7.3,7.7-13,15.1-14.4V52.7c-7.4-1.4-13.3-7.1-15.1-14.4H224.8
		c-1.8,7.3-7.7,13-15.1,14.4v43.8C217.1,98,223.1,103.6,224.8,110.9z M339.6,67.4c4,0,7.2,3.2,7.2,7.2c0,4-3.2,7.2-7.2,7.2
		c-4,0-7.2-3.2-7.2-7.2C332.4,70.6,335.6,67.4,339.6,67.4z M287.8,44.3c16.7,0,30.3,13.5,30.3,30.3c0,16.7-13.5,30.3-30.3,30.3
		c-16.7,0-30.3-13.5-30.3-30.3C257.5,57.9,271.1,44.3,287.8,44.3z M236,67.4c4,0,7.2,3.2,7.2,7.2c0,4-3.2,7.2-7.2,7.2
		c-4,0-7.2-3.2-7.2-7.2C228.8,70.6,232,67.4,236,67.4z"/>
	<path class="st0" d="M191.6,20v4.4v104.8H384V122V20H191.6z M373.9,119.1H201.7v-89h172.2V119.1z"/>
</g>
</svg>
