<?xml version="1.0" encoding="utf-8"?>
<!-- Generator: Adobe Illustrator 27.4.0, SVG Export Plug-In . SVG Version: 6.00 Build 0)  -->
<svg version="1.1" id="_x32_" xmlns="http://www.w3.org/2000/svg" xmlns:xlink="http://www.w3.org/1999/xlink" x="0px" y="0px"
	 viewBox="0 0 512 512" style="enable-background:new 0 0 512 512;" xml:space="preserve">
<style type="text/css">
	.st0{fill:#DCDCDC;}
</style>
<g>
	<path class="st0" d="M383.1,219.8l-22.8-28.7V70.6c0-5.8-4.7-10.6-10.6-10.6H162.3c-5.8,0-10.6,4.7-10.6,10.6v120.5l-22.8,28.7
		c-0.6,0.7-0.9,1.7-0.9,2.6v12.7c0,4.7,3.8,8.4,8.4,8.4h239.2c4.7,0,8.4-3.8,8.4-8.4v-12.7C384,221.4,383.7,220.5,383.1,219.8z
		 M166.6,74.9h178.8v101.3H166.6V74.9z M280.1,233.5h-48.1v-12.7h48.1V233.5z"/>
	<path class="st0" d="M230.2,107.5c-0.1,0-0.1,0-0.2,0l-28.8,19.6c-0.1,0.1-0.1,0.1-0.1,0.2v5.3c0,0.1,0,0.2,0.1,0.2l28.8,19.6
		c0,0,0.1,0.1,0.2,0.1c0,0,0.1,0,0.1,0c0.1,0,0.1-0.1,0.1-0.2v-8.4c0-0.1,0-0.2-0.1-0.2l-20-13.6l20-13.6c0.1-0.1,0.1-0.1,0.1-0.2
		v-8.4c0-0.1-0.1-0.2-0.1-0.2C230.3,107.5,230.2,107.5,230.2,107.5z"/>
	<path class="st0" d="M281,107.5c0,0-0.1,0-0.2,0c0,0-0.1,0-0.1,0c-0.1,0-0.1,0.1-0.1,0.2v8.4c0,0.1,0,0.2,0.1,0.2l20,13.6l-20,13.6
		c-0.1,0.1-0.1,0.1-0.1,0.2v8.4c0,0.1,0.1,0.2,0.1,0.2c0,0,0.1,0,0.1,0c0.1,0,0.1,0,0.2-0.1l28.8-19.6c0.1,0,0.1-0.1,0.1-0.2v-5.3
		c0-0.1,0-0.2-0.1-0.2L281,107.5z"/>
	<path class="st0" d="M268.7,102.9h-8c-0.1,0-0.2,0.1-0.3,0.2L242.1,156c0,0.1,0,0.2,0,0.2c0.1,0.1,0.1,0.1,0.2,0.1h8
		c0.1,0,0.2-0.1,0.3-0.2l18.3-52.9c0-0.1,0-0.2,0-0.3C268.9,102.9,268.8,102.9,268.7,102.9z"/>
</g>
</svg>
