<?xml version="1.0" encoding="utf-8"?>
<!-- Generator: Adobe Illustrator 27.4.0, SVG Export Plug-In . SVG Version: 6.00 Build 0)  -->
<svg version="1.1" id="_x32_" xmlns="http://www.w3.org/2000/svg" xmlns:xlink="http://www.w3.org/1999/xlink" x="0px" y="0px"
	 viewBox="0 0 512 512" style="enable-background:new 0 0 512 512;" xml:space="preserve">
<style type="text/css">
	.st0{fill:#DCDCDC;}
</style>
<g>
	<path class="st0" d="M346.8,215.8V84.9c0-24.8-20.1-44.9-44.9-44.9h-91.7c-24.8,0-44.9,20.1-44.9,44.9v130.9
		c0,18.8,13.7,34.5,31.6,37.6L168.7,296h25.1l11.6-17.5h101.4l11.6,17.5h25.1l-28.2-42.6C333.1,250.3,346.8,234.6,346.8,215.8z
		 M217.1,60.2h77.8v13h-77.8V60.2z M193.7,102.1c0-5.6,4.6-10.2,10.2-10.2h104.2c5.6,0,10.2,4.6,10.2,10.2v43.1
		c0,5.6-4.6,10.2-10.2,10.2H203.9c-5.6,0-10.2-4.6-10.2-10.2L193.7,102.1L193.7,102.1z M203.4,227c-6.6,0-11.9-5.3-11.9-11.9
		c0-6.6,5.3-11.9,11.9-11.9c6.6,0,11.9,5.3,11.9,11.9C215.3,221.7,210,227,203.4,227z M212.8,267.2l8.7-13.2h69l8.7,13.2H212.8z
		 M308.6,227c-6.6,0-11.9-5.3-11.9-11.9c0-6.6,5.3-11.9,11.9-11.9c6.6,0,11.9,5.3,11.9,11.9C320.5,221.7,315.2,227,308.6,227z"/>
</g>
</svg>
